<svg xmlns="http://www.w3.org/2000/svg" width="828" height="200" viewBox="0 0 828 200">
<defs>
<style>
.mono { font-family: "Consolas", "Monaco", "Lucida Console", "Liberation Mono", "DejaVu Sans Mono", monospace; font-size: 16px; }
</style>
</defs>
<rect width="100%" height="100%" fill="#0d1117"/>
<text x="56" y="16" class="mono" fill="#8BE9FD" font-weight="bold">_</text>
<text x="68" y="16" class="mono" fill="#8BE9FD" font-weight="bold">_</text>
<text x="80" y="16" class="mono" fill="#8BE9FD" font-weight="bold">_</text>
<text x="92" y="16" class="mono" fill="#8BE9FD" font-weight="bold">_</text>
<text x="104" y="16" class="mono" fill="#8BE9FD" font-weight="bold">_</text>
<text x="248" y="16" class="mono" fill="#8BE9FD" font-weight="bold">_</text>
<text x="260" y="16" class="mono" fill="#8BE9FD" font-weight="bold">_</text>
<text x="272" y="16" class="mono" fill="#8BE9FD" font-weight="bold">_</text>
<text x="284" y="16" class="mono" fill="#8BE9FD" font-weight="bold">_</text>
<text x="296" y="16" class="mono" fill="#8BE9FD" font-weight="bold">_</text>
<text x="308" y="16" class="mono" fill="#8BE9FD" font-weight="bold">_</text>
<text x="320" y="16" class="mono" fill="#8BE9FD" font-weight="bold">_</text>
<text x="332" y="16" class="mono" fill="#8BE9FD" font-weight="bold">_</text>
<text x="344" y="16" class="mono" fill="#8BE9FD" font-weight="bold">_</text>
<text x="356" y="16" class="mono" fill="#8BE9FD" font-weight="bold">_</text>
<text x="368" y="16" class="mono" fill="#8BE9FD" font-weight="bold">_</text>
<text x="380" y="16" class="mono" fill="#8BE9FD" font-weight="bold">_</text>
<text x="452" y="16" class="mono" fill="#8BE9FD" font-weight="bold">_</text>
<text x="464" y="16" class="mono" fill="#8BE9FD" font-weight="bold">_</text>
<text x="476" y="16" class="mono" fill="#8BE9FD" font-weight="bold">_</text>
<text x="488" y="16" class="mono" fill="#8BE9FD" font-weight="bold">_</text>
<text x="500" y="16" class="mono" fill="#8BE9FD" font-weight="bold">_</text>
<text x="512" y="16" class="mono" fill="#8BE9FD" font-weight="bold">_</text>
<text x="524" y="16" class="mono" fill="#8BE9FD" font-weight="bold">_</text>
<text x="536" y="16" class="mono" fill="#8BE9FD" font-weight="bold">_</text>
<text x="548" y="16" class="mono" fill="#8BE9FD" font-weight="bold">_</text>
<text x="560" y="16" class="mono" fill="#8BE9FD" font-weight="bold">_</text>
<text x="572" y="16" class="mono" fill="#8BE9FD" font-weight="bold">_</text>
<text x="584" y="16" class="mono" fill="#8BE9FD" font-weight="bold">_</text>
<text x="596" y="16" class="mono" fill="#8BE9FD" font-weight="bold">_</text>
<text x="608" y="16" class="mono" fill="#8BE9FD" font-weight="bold">_</text>
<text x="644" y="16" class="mono" fill="#8BE9FD" font-weight="bold">_</text>
<text x="656" y="16" class="mono" fill="#8BE9FD" font-weight="bold">_</text>
<text x="668" y="16" class="mono" fill="#8BE9FD" font-weight="bold">_</text>
<text x="680" y="16" class="mono" fill="#8BE9FD" font-weight="bold">_</text>
<text x="692" y="16" class="mono" fill="#8BE9FD" font-weight="bold">_</text>
<text x="704" y="16" class="mono" fill="#8BE9FD" font-weight="bold">_</text>
<text x="752" y="16" class="mono" fill="#8BE9FD" font-weight="bold">_</text>
<text x="764" y="16" class="mono" fill="#8BE9FD" font-weight="bold">_</text>
<text x="776" y="16" class="mono" fill="#8BE9FD" font-weight="bold">_</text>
<text x="788" y="16" class="mono" fill="#8BE9FD" font-weight="bold">_</text>
<text x="800" y="16" class="mono" fill="#8BE9FD" font-weight="bold">_</text>
<text x="32" y="36" class="mono" fill="#8BE9FD" font-weight="normal">/</text>
<text x="116" y="36" class="mono" fill="#8BE9FD" font-weight="normal">|</text>
<text x="128" y="36" class="mono" fill="#8BE9FD" font-weight="normal">_</text>
<text x="236" y="36" class="mono" fill="#8BE9FD" font-weight="normal">/</text>
<text x="392" y="36" class="mono" fill="#8BE9FD" font-weight="normal">\</text>
<text x="440" y="36" class="mono" fill="#8BE9FD" font-weight="normal">/</text>
<text x="512" y="36" class="mono" fill="#8BE9FD" font-weight="normal">/</text>
<text x="536" y="36" class="mono" fill="#8BE9FD" font-weight="normal">|</text>
<text x="608" y="36" class="mono" fill="#8BE9FD" font-weight="normal">|</text>
<text x="632" y="36" class="mono" fill="#8BE9FD" font-weight="normal">|</text>
<text x="644" y="36" class="mono" fill="#8BE9FD" font-weight="normal">\</text>
<text x="716" y="36" class="mono" fill="#8BE9FD" font-weight="normal">\</text>
<text x="740" y="36" class="mono" fill="#8BE9FD" font-weight="normal">|</text>
<text x="812" y="36" class="mono" fill="#8BE9FD" font-weight="normal">|</text>
<text x="20" y="56" class="mono" fill="#8BE9FD" font-weight="normal">/</text>
<text x="140" y="56" class="mono" fill="#8BE9FD" font-weight="normal">\</text>
<text x="224" y="56" class="mono" fill="#8BE9FD" font-weight="normal">|</text>
<text x="236" y="56" class="mono" fill="#8BE9FD" font-weight="normal">\</text>
<text x="248" y="56" class="mono" fill="#8BE9FD" font-weight="normal">_</text>
<text x="260" y="56" class="mono" fill="#8BE9FD" font-weight="normal">_</text>
<text x="272" y="56" class="mono" fill="#8BE9FD" font-weight="normal">_</text>
<text x="284" y="56" class="mono" fill="#8BE9FD" font-weight="normal">/</text>
<text x="296" y="56" class="mono" fill="#8BE9FD" font-weight="normal">\</text>
<text x="332" y="56" class="mono" fill="#8BE9FD" font-weight="normal">\</text>
<text x="344" y="56" class="mono" fill="#8BE9FD" font-weight="normal">\</text>
<text x="356" y="56" class="mono" fill="#8BE9FD" font-weight="normal">_</text>
<text x="368" y="56" class="mono" fill="#8BE9FD" font-weight="normal">_</text>
<text x="380" y="56" class="mono" fill="#8BE9FD" font-weight="normal">_</text>
<text x="392" y="56" class="mono" fill="#8BE9FD" font-weight="normal">/</text>
<text x="404" y="56" class="mono" fill="#8BE9FD" font-weight="normal">|</text>
<text x="428" y="56" class="mono" fill="#8BE9FD" font-weight="normal">|</text>
<text x="512" y="56" class="mono" fill="#8BE9FD" font-weight="normal">|</text>
<text x="524" y="56" class="mono" fill="#8BE9FD" font-weight="normal">/</text>
<text x="596" y="56" class="mono" fill="#8BE9FD" font-weight="normal">/</text>
<text x="608" y="56" class="mono" fill="#8BE9FD" font-weight="normal">|</text>
<text x="632" y="56" class="mono" fill="#8BE9FD" font-weight="normal">\</text>
<text x="656" y="56" class="mono" fill="#8BE9FD" font-weight="normal">\</text>
<text x="728" y="56" class="mono" fill="#8BE9FD" font-weight="normal">\</text>
<text x="740" y="56" class="mono" fill="#8BE9FD" font-weight="normal">|</text>
<text x="812" y="56" class="mono" fill="#8BE9FD" font-weight="normal">|</text>
<text x="8" y="76" class="mono" fill="#50FA7B" font-weight="normal">|</text>
<text x="80" y="76" class="mono" fill="#50FA7B" font-weight="normal">/</text>
<text x="92" y="76" class="mono" fill="#50FA7B" font-weight="normal">\</text>
<text x="152" y="76" class="mono" fill="#50FA7B" font-weight="normal">\</text>
<text x="236" y="76" class="mono" fill="#50FA7B" font-weight="normal">\</text>
<text x="248" y="76" class="mono" fill="#50FA7B" font-weight="normal">|</text>
<text x="260" y="76" class="mono" fill="#50FA7B" font-weight="normal">_</text>
<text x="272" y="76" class="mono" fill="#50FA7B" font-weight="normal">_</text>
<text x="284" y="76" class="mono" fill="#50FA7B" font-weight="normal">_</text>
<text x="296" y="76" class="mono" fill="#50FA7B" font-weight="normal">_</text>
<text x="308" y="76" class="mono" fill="#50FA7B" font-weight="normal">\</text>
<text x="344" y="76" class="mono" fill="#50FA7B" font-weight="normal">\</text>
<text x="356" y="76" class="mono" fill="#50FA7B" font-weight="normal">_</text>
<text x="368" y="76" class="mono" fill="#50FA7B" font-weight="normal">_</text>
<text x="380" y="76" class="mono" fill="#50FA7B" font-weight="normal">_</text>
<text x="392" y="76" class="mono" fill="#50FA7B" font-weight="normal">|</text>
<text x="404" y="76" class="mono" fill="#50FA7B" font-weight="normal">/</text>
<text x="428" y="76" class="mono" fill="#50FA7B" font-weight="normal">|</text>
<text x="512" y="76" class="mono" fill="#50FA7B" font-weight="normal">|</text>
<text x="524" y="76" class="mono" fill="#50FA7B" font-weight="normal">\</text>
<text x="536" y="76" class="mono" fill="#50FA7B" font-weight="normal">_</text>
<text x="548" y="76" class="mono" fill="#50FA7B" font-weight="normal">_</text>
<text x="560" y="76" class="mono" fill="#50FA7B" font-weight="normal">_</text>
<text x="572" y="76" class="mono" fill="#50FA7B" font-weight="normal">_</text>
<text x="584" y="76" class="mono" fill="#50FA7B" font-weight="normal">/</text>
<text x="608" y="76" class="mono" fill="#50FA7B" font-weight="normal">|</text>
<text x="644" y="76" class="mono" fill="#50FA7B" font-weight="normal">\</text>
<text x="668" y="76" class="mono" fill="#50FA7B" font-weight="normal">\</text>
<text x="812" y="76" class="mono" fill="#50FA7B" font-weight="normal">|</text>
<text x="8" y="96" class="mono" fill="#F1FA8C" font-weight="normal">|</text>
<text x="68" y="96" class="mono" fill="#F1FA8C" font-weight="normal">|</text>
<text x="104" y="96" class="mono" fill="#F1FA8C" font-weight="normal">|</text>
<text x="164" y="96" class="mono" fill="#F1FA8C" font-weight="normal">\</text>
<text x="308" y="96" class="mono" fill="#F1FA8C" font-weight="normal">|</text>
<text x="344" y="96" class="mono" fill="#F1FA8C" font-weight="normal">|</text>
<text x="428" y="96" class="mono" fill="#F1FA8C" font-weight="normal">|</text>
<text x="440" y="96" class="mono" fill="#F1FA8C" font-weight="normal">\</text>
<text x="512" y="96" class="mono" fill="#F1FA8C" font-weight="normal">\</text>
<text x="572" y="96" class="mono" fill="#F1FA8C" font-weight="normal">|</text>
<text x="596" y="96" class="mono" fill="#F1FA8C" font-weight="normal">/</text>
<text x="656" y="96" class="mono" fill="#F1FA8C" font-weight="normal">\</text>
<text x="680" y="96" class="mono" fill="#F1FA8C" font-weight="normal">\</text>
<text x="692" y="96" class="mono" fill="#F1FA8C" font-weight="normal">_</text>
<text x="704" y="96" class="mono" fill="#F1FA8C" font-weight="normal">_</text>
<text x="716" y="96" class="mono" fill="#F1FA8C" font-weight="normal">_</text>
<text x="728" y="96" class="mono" fill="#F1FA8C" font-weight="normal">_</text>
<text x="812" y="96" class="mono" fill="#F1FA8C" font-weight="normal">|</text>
<text x="8" y="116" class="mono" fill="#FF5555" font-weight="normal">|</text>
<text x="80" y="116" class="mono" fill="#FF5555" font-weight="normal">\</text>
<text x="92" y="116" class="mono" fill="#FF5555" font-weight="normal">/</text>
<text x="176" y="116" class="mono" fill="#FF5555" font-weight="normal">\</text>
<text x="248" y="116" class="mono" fill="#FF5555" font-weight="normal">_</text>
<text x="260" y="116" class="mono" fill="#FF5555" font-weight="normal">_</text>
<text x="296" y="116" class="mono" fill="#FF5555" font-weight="normal">/</text>
<text x="344" y="116" class="mono" fill="#FF5555" font-weight="normal">/</text>
<text x="368" y="116" class="mono" fill="#FF5555" font-weight="normal">_</text>
<text x="380" y="116" class="mono" fill="#FF5555" font-weight="normal">_</text>
<text x="428" y="116" class="mono" fill="#FF5555" font-weight="normal">|</text>
<text x="452" y="116" class="mono" fill="#FF5555" font-weight="normal">\</text>
<text x="524" y="116" class="mono" fill="#FF5555" font-weight="normal">\</text>
<text x="536" y="116" class="mono" fill="#FF5555" font-weight="normal">_</text>
<text x="548" y="116" class="mono" fill="#FF5555" font-weight="normal">_</text>
<text x="560" y="116" class="mono" fill="#FF5555" font-weight="normal">_</text>
<text x="572" y="116" class="mono" fill="#FF5555" font-weight="normal">|</text>
<text x="584" y="116" class="mono" fill="#FF5555" font-weight="normal">/</text>
<text x="668" y="116" class="mono" fill="#FF5555" font-weight="normal">\</text>
<text x="680" y="116" class="mono" fill="#FF5555" font-weight="normal">|</text>
<text x="692" y="116" class="mono" fill="#FF5555" font-weight="normal">_</text>
<text x="704" y="116" class="mono" fill="#FF5555" font-weight="normal">_</text>
<text x="716" y="116" class="mono" fill="#FF5555" font-weight="normal">_</text>
<text x="728" y="116" class="mono" fill="#FF5555" font-weight="normal">/</text>
<text x="800" y="116" class="mono" fill="#FF5555" font-weight="normal">/</text>
<text x="812" y="116" class="mono" fill="#FF5555" font-weight="normal">|</text>
<text x="8" y="136" class="mono" fill="#BD93F9" font-weight="normal">|</text>
<text x="20" y="136" class="mono" fill="#BD93F9" font-weight="normal">\</text>
<text x="104" y="136" class="mono" fill="#BD93F9" font-weight="normal">/</text>
<text x="116" y="136" class="mono" fill="#BD93F9" font-weight="normal">\</text>
<text x="188" y="136" class="mono" fill="#BD93F9" font-weight="normal">\</text>
<text x="236" y="136" class="mono" fill="#BD93F9" font-weight="normal">/</text>
<text x="272" y="136" class="mono" fill="#BD93F9" font-weight="normal">\</text>
<text x="284" y="136" class="mono" fill="#BD93F9" font-weight="normal">/</text>
<text x="332" y="136" class="mono" fill="#BD93F9" font-weight="normal">/</text>
<text x="344" y="136" class="mono" fill="#BD93F9" font-weight="normal">_</text>
<text x="356" y="136" class="mono" fill="#BD93F9" font-weight="normal">/</text>
<text x="392" y="136" class="mono" fill="#BD93F9" font-weight="normal">|</text>
<text x="428" y="136" class="mono" fill="#BD93F9" font-weight="normal">|</text>
<text x="464" y="136" class="mono" fill="#BD93F9" font-weight="normal">\</text>
<text x="536" y="136" class="mono" fill="#BD93F9" font-weight="normal">\</text>
<text x="716" y="136" class="mono" fill="#BD93F9" font-weight="normal">/</text>
<text x="788" y="136" class="mono" fill="#BD93F9" font-weight="normal">/</text>
<text x="812" y="136" class="mono" fill="#BD93F9" font-weight="normal">|</text>
<text x="8" y="156" class="mono" fill="#8BE9FD" font-weight="bold">|</text>
<text x="32" y="156" class="mono" fill="#8BE9FD" font-weight="bold">\</text>
<text x="44" y="156" class="mono" fill="#8BE9FD" font-weight="bold">_</text>
<text x="56" y="156" class="mono" fill="#8BE9FD" font-weight="bold">_</text>
<text x="68" y="156" class="mono" fill="#8BE9FD" font-weight="bold">_</text>
<text x="80" y="156" class="mono" fill="#8BE9FD" font-weight="bold">_</text>
<text x="92" y="156" class="mono" fill="#8BE9FD" font-weight="bold">_</text>
<text x="104" y="156" class="mono" fill="#8BE9FD" font-weight="bold">\</text>
<text x="128" y="156" class="mono" fill="#8BE9FD" font-weight="bold">\</text>
<text x="140" y="156" class="mono" fill="#8BE9FD" font-weight="bold">_</text>
<text x="152" y="156" class="mono" fill="#8BE9FD" font-weight="bold">_</text>
<text x="164" y="156" class="mono" fill="#8BE9FD" font-weight="bold">_</text>
<text x="176" y="156" class="mono" fill="#8BE9FD" font-weight="bold">_</text>
<text x="188" y="156" class="mono" fill="#8BE9FD" font-weight="bold">_</text>
<text x="200" y="156" class="mono" fill="#8BE9FD" font-weight="bold">\</text>
<text x="224" y="156" class="mono" fill="#8BE9FD" font-weight="bold">|</text>
<text x="236" y="156" class="mono" fill="#8BE9FD" font-weight="bold">_</text>
<text x="248" y="156" class="mono" fill="#8BE9FD" font-weight="bold">_</text>
<text x="260" y="156" class="mono" fill="#8BE9FD" font-weight="bold">_</text>
<text x="272" y="156" class="mono" fill="#8BE9FD" font-weight="bold">_</text>
<text x="284" y="156" class="mono" fill="#8BE9FD" font-weight="bold">_</text>
<text x="296" y="156" class="mono" fill="#8BE9FD" font-weight="bold">_</text>
<text x="308" y="156" class="mono" fill="#8BE9FD" font-weight="bold">_</text>
<text x="320" y="156" class="mono" fill="#8BE9FD" font-weight="bold">_</text>
<text x="332" y="156" class="mono" fill="#8BE9FD" font-weight="bold">_</text>
<text x="344" y="156" class="mono" fill="#8BE9FD" font-weight="bold">_</text>
<text x="356" y="156" class="mono" fill="#8BE9FD" font-weight="bold">_</text>
<text x="368" y="156" class="mono" fill="#8BE9FD" font-weight="bold">_</text>
<text x="380" y="156" class="mono" fill="#8BE9FD" font-weight="bold">/</text>
<text x="392" y="156" class="mono" fill="#8BE9FD" font-weight="bold">|</text>
<text x="440" y="156" class="mono" fill="#8BE9FD" font-weight="bold">\</text>
<text x="476" y="156" class="mono" fill="#8BE9FD" font-weight="bold">\</text>
<text x="488" y="156" class="mono" fill="#8BE9FD" font-weight="bold">_</text>
<text x="500" y="156" class="mono" fill="#8BE9FD" font-weight="bold">_</text>
<text x="512" y="156" class="mono" fill="#8BE9FD" font-weight="bold">_</text>
<text x="524" y="156" class="mono" fill="#8BE9FD" font-weight="bold">_</text>
<text x="536" y="156" class="mono" fill="#8BE9FD" font-weight="bold">_</text>
<text x="548" y="156" class="mono" fill="#8BE9FD" font-weight="bold">\</text>
<text x="704" y="156" class="mono" fill="#8BE9FD" font-weight="bold">/</text>
<text x="716" y="156" class="mono" fill="#8BE9FD" font-weight="bold">_</text>
<text x="728" y="156" class="mono" fill="#8BE9FD" font-weight="bold">_</text>
<text x="740" y="156" class="mono" fill="#8BE9FD" font-weight="bold">_</text>
<text x="752" y="156" class="mono" fill="#8BE9FD" font-weight="bold">_</text>
<text x="764" y="156" class="mono" fill="#8BE9FD" font-weight="bold">_</text>
<text x="776" y="156" class="mono" fill="#8BE9FD" font-weight="bold">/</text>
<text x="812" y="156" class="mono" fill="#8BE9FD" font-weight="bold">/</text>
<text x="8" y="176" class="mono" fill="#8BE9FD" font-weight="bold">|</text>
<text x="32" y="176" class="mono" fill="#8BE9FD" font-weight="bold">|</text>
<text x="104" y="176" class="mono" fill="#8BE9FD" font-weight="bold">|</text>
<text x="128" y="176" class="mono" fill="#8BE9FD" font-weight="bold">|</text>
<text x="200" y="176" class="mono" fill="#8BE9FD" font-weight="bold">|</text>
<text x="224" y="176" class="mono" fill="#8BE9FD" font-weight="bold">|</text>
<text x="368" y="176" class="mono" fill="#8BE9FD" font-weight="bold">|</text>
<text x="392" y="176" class="mono" fill="#8BE9FD" font-weight="bold">/</text>
<text x="452" y="176" class="mono" fill="#8BE9FD" font-weight="bold">\</text>
<text x="476" y="176" class="mono" fill="#8BE9FD" font-weight="bold">|</text>
<text x="548" y="176" class="mono" fill="#8BE9FD" font-weight="bold">|</text>
<text x="704" y="176" class="mono" fill="#8BE9FD" font-weight="bold">|</text>
<text x="776" y="176" class="mono" fill="#8BE9FD" font-weight="bold">|</text>
<text x="800" y="176" class="mono" fill="#8BE9FD" font-weight="bold">/</text>
<text x="20" y="196" class="mono" fill="#50FA7B" font-weight="bold">\</text>
<text x="32" y="196" class="mono" fill="#50FA7B" font-weight="bold">|</text>
<text x="44" y="196" class="mono" fill="#50FA7B" font-weight="bold">_</text>
<text x="56" y="196" class="mono" fill="#50FA7B" font-weight="bold">_</text>
<text x="68" y="196" class="mono" fill="#50FA7B" font-weight="bold">_</text>
<text x="80" y="196" class="mono" fill="#50FA7B" font-weight="bold">_</text>
<text x="92" y="196" class="mono" fill="#50FA7B" font-weight="bold">_</text>
<text x="104" y="196" class="mono" fill="#50FA7B" font-weight="bold">|</text>
<text x="116" y="196" class="mono" fill="#50FA7B" font-weight="bold">\</text>
<text x="128" y="196" class="mono" fill="#50FA7B" font-weight="bold">|</text>
<text x="140" y="196" class="mono" fill="#50FA7B" font-weight="bold">_</text>
<text x="152" y="196" class="mono" fill="#50FA7B" font-weight="bold">_</text>
<text x="164" y="196" class="mono" fill="#50FA7B" font-weight="bold">_</text>
<text x="176" y="196" class="mono" fill="#50FA7B" font-weight="bold">_</text>
<text x="188" y="196" class="mono" fill="#50FA7B" font-weight="bold">_</text>
<text x="200" y="196" class="mono" fill="#50FA7B" font-weight="bold">|</text>
<text x="224" y="196" class="mono" fill="#50FA7B" font-weight="bold">|</text>
<text x="236" y="196" class="mono" fill="#50FA7B" font-weight="bold">_</text>
<text x="248" y="196" class="mono" fill="#50FA7B" font-weight="bold">_</text>
<text x="260" y="196" class="mono" fill="#50FA7B" font-weight="bold">_</text>
<text x="272" y="196" class="mono" fill="#50FA7B" font-weight="bold">_</text>
<text x="284" y="196" class="mono" fill="#50FA7B" font-weight="bold">_</text>
<text x="296" y="196" class="mono" fill="#50FA7B" font-weight="bold">_</text>
<text x="308" y="196" class="mono" fill="#50FA7B" font-weight="bold">_</text>
<text x="320" y="196" class="mono" fill="#50FA7B" font-weight="bold">_</text>
<text x="332" y="196" class="mono" fill="#50FA7B" font-weight="bold">_</text>
<text x="344" y="196" class="mono" fill="#50FA7B" font-weight="bold">_</text>
<text x="356" y="196" class="mono" fill="#50FA7B" font-weight="bold">_</text>
<text x="368" y="196" class="mono" fill="#50FA7B" font-weight="bold">|</text>
<text x="380" y="196" class="mono" fill="#50FA7B" font-weight="bold">/</text>
<text x="464" y="196" class="mono" fill="#50FA7B" font-weight="bold">\</text>
<text x="476" y="196" class="mono" fill="#50FA7B" font-weight="bold">|</text>
<text x="488" y="196" class="mono" fill="#50FA7B" font-weight="bold">_</text>
<text x="500" y="196" class="mono" fill="#50FA7B" font-weight="bold">_</text>
<text x="512" y="196" class="mono" fill="#50FA7B" font-weight="bold">_</text>
<text x="524" y="196" class="mono" fill="#50FA7B" font-weight="bold">_</text>
<text x="536" y="196" class="mono" fill="#50FA7B" font-weight="bold">_</text>
<text x="548" y="196" class="mono" fill="#50FA7B" font-weight="bold">|</text>
<text x="704" y="196" class="mono" fill="#50FA7B" font-weight="bold">|</text>
<text x="716" y="196" class="mono" fill="#50FA7B" font-weight="bold">_</text>
<text x="728" y="196" class="mono" fill="#50FA7B" font-weight="bold">_</text>
<text x="740" y="196" class="mono" fill="#50FA7B" font-weight="bold">_</text>
<text x="752" y="196" class="mono" fill="#50FA7B" font-weight="bold">_</text>
<text x="764" y="196" class="mono" fill="#50FA7B" font-weight="bold">_</text>
<text x="776" y="196" class="mono" fill="#50FA7B" font-weight="bold">|</text>
<text x="788" y="196" class="mono" fill="#50FA7B" font-weight="bold">/</text>
</svg>